<svg xmlns:dc="http://purl.org/dc/elements/1.1/" xmlns:cc="http://creativecommons.org/ns#" xmlns:rdf="http://www.w3.org/1999/02/22-rdf-syntax-ns#" xmlns:svg="http://www.w3.org/2000/svg" xmlns="http://www.w3.org/2000/svg" xmlns:sodipodi="http://sodipodi.sourceforge.net/DTD/sodipodi-0.dtd" xmlns:inkscape="http://www.inkscape.org/namespaces/inkscape" viewBox="0 0 100 100" version="1.1" x="0px" y="0px"><g transform="translate(0,-952.36216)"><path style="color:#000000;clip-rule:nonzero;display:inline;overflow:visible;visibility:visible;opacity:1;isolation:auto;mix-blend-mode:normal;color-interpolation:sRGB;color-interpolation-filters:linearRGB;solid-color:#000000;solid-opacity:1;fill:#000000;fill-opacity:1;fill-rule:nonzero;stroke:none;stroke-width:7.5;stroke-linecap:round;stroke-linejoin:round;stroke-miterlimit:4;stroke-dasharray:none;stroke-dashoffset:0;stroke-opacity:1;marker:none;color-rendering:auto;image-rendering:auto;shape-rendering:auto;text-rendering:auto;enable-background:accumulate" d="m 49.973743,957.5178 c -0.660042,0 -1.321369,0.012 -1.983374,0.038 -10.569413,0.4392 -20.643443,4.5982 -28.444693,11.7426 -6.32663,5.8241 -10.7823696,13.3278 -12.9590296,21.572 2.472,-3.6972 5.4555696,-7.0366 8.8849796,-9.8972 a 0.87671453,0.87671453 0 0 1 0.002,0 c 11.45328,-9.5125 26.76276,-12.9832 41.198258,-9.3411 0.491005,0.1155 0.9789,0.2429 1.46378,0.3817 l 0.03104,0.01 c 0.381742,0.095 0.762245,0.1936 1.141462,0.2981 a 0.87671453,0.87671453 0 0 1 0.05568,0.019 c 0.140588,0.049 0.280871,0.099 0.420968,0.1494 l 0.01379,0 c 0.225212,0.077 0.449581,0.1567 0.672993,0.2387 a 0.87671453,0.87671453 0 0 1 0.02466,0.01 c 0.02291,0.01 0.04568,0.019 0.06849,0.027 0.831581,0.2946 1.650093,0.6239 2.454088,0.9868 8.814659,3.6369 16.255281,9.8977 21.392899,17.8754 0.09718,-8.723 -2.331501,-17.3062 -7.055023,-24.6872 -7.850206,-6.0899 -17.48146,-9.396 -27.382271,-9.4232 l 0,0 z m 31.756732,12.8837 c 1.966169,3.9899 3.366645,8.2438 4.129264,12.6444 2.511501,14.6771 -2.139367,29.673 -12.514305,40.3536 l -0.004,0 c -0.342515,0.364 -0.693891,0.7191 -1.053331,1.0664 l -0.02338,0.024 c -0.272689,0.2828 -0.548465,0.5627 -0.828237,0.8387 a 0.87671453,0.87671453 0 0 1 -0.04383,0.04 c -0.1127,0.097 -0.226077,0.1938 -0.339688,0.2899 l -0.01145,0.01 c -0.179229,0.1564 -0.360142,0.3104 -0.542878,0.4628 a 0.87671453,0.87671453 0 0 1 -0.01636,0.014 c -0.01332,0.012 -0.02679,0.021 -0.04018,0.032 -0.677761,0.58 -1.380301,1.1303 -2.104816,1.6509 -7.556641,5.8145 -16.697475,9.1281 -26.174608,9.5886 7.505727,4.4456 16.153055,6.6334 24.906702,6.2332 20.240566,-8.2578 31.591925,-29.8864 26.863587,-51.2439 -1.880493,-8.391 -6.150998,-16.0018 -12.202459,-22.0089 z m -58.458699,7.4398 c 0,0 0,0 -0.002,0 l 0.002,0 0,0 z m -0.002,0 c -4.34522,2.445 -8.2384,5.5763 -11.52673,9.2726 -0.15417,0.1747 -0.31199,0.3463 -0.46342,0.5235 -0.60855,0.7057 -1.18887,1.4362 -1.7532596,2.1801 -0.30684,0.4074 -0.60244,0.8228 -0.89535,1.2408 -0.43637,0.6178 -0.87006,1.2383 -1.27567,1.879 -0.56581,0.9017 -1.09966,1.8236 -1.60121,2.7655 -0.10732,0.1999 -0.23026,0.3894 -0.33468,0.5912 -2.96882,21.6585 10.0874696,42.3044 30.9490396,48.8875 8.20661,2.5663 16.932645,2.6731 25.160104,0.436 -4.438304,-0.2923 -8.822327,-1.207 -13.014707,-2.7468 a 0.87671453,0.87671453 0 0 1 -0.0023,0 c -13.966767,-5.1635 -24.628207,-16.6896 -28.690357,-31.0153 0,0 -0.002,0 -0.002,0 -0.14388,-0.4785 -0.27627,-0.9608 -0.39722,-1.4456 -0.11207,-0.388 -0.21904,-0.7775 -0.32098,-1.1684 a 0.87671453,0.87671453 0 0 1 -0.0129,-0.058 c -0.0277,-0.1461 -0.0549,-0.2925 -0.0813,-0.4388 -0.0471,-0.2382 -0.0913,-0.4762 -0.13287,-0.7153 a 0.87671453,0.87671453 0 0 1 -0.004,-0.025 c -0.004,-0.023 -0.007,-0.046 -0.0101,-0.068 -0.1615,-0.8694 -0.28559,-1.7451 -0.37346,-2.6248 -1.25786,-9.4526 0.4435,-19.027 4.784,-27.4655 z"></path></g></svg>